<svg xmlns="http://www.w3.org/2000/svg" viewBox="0 0 640 360" role="img" aria-label="An assembly chamber in plan, a small group of members highlighted">
<defs>
<linearGradient id="sky" x1="0" y1="0" x2="0" y2="1">
<stop offset="0" stop-color="#FAF7F1"/><stop offset="1" stop-color="#E8E2D6"/>
</linearGradient>
</defs>
<rect width="640" height="360" fill="url(#sky)"/>

<g fill="none" stroke="#0F1720" stroke-width="3" opacity="0.8">
<path d="M320 90 m-190 150 a190 150 0 0 1 380 0"/>
<path d="M320 120 m-140 120 a140 120 0 0 1 280 0"/>
<path d="M320 150 m-90 90 a90 90 0 0 1 180 0"/>
</g>
<g fill="#0E5D63">
<circle cx="205" cy="205" r="8"/><circle cx="232" cy="188" r="8"/><circle cx="262" cy="176" r="8"/><circle cx="294" cy="169" r="8"/><circle cx="326" cy="168" r="8"/>
</g>
<g fill="#0F1720" opacity="0.35">
<circle cx="358" cy="171" r="8"/><circle cx="389" cy="180" r="8"/><circle cx="418" cy="193" r="8"/><circle cx="443" cy="210" r="8"/>
</g>
<rect x="285" y="255" width="70" height="34" rx="6" fill="#B98A2F" opacity="0.9"/>

</svg>