<svg xmlns="http://www.w3.org/2000/svg" width="512" height="512" viewBox="0 0 512 512">
  <defs>
    <linearGradient id="bg" x1="0" y1="0" x2="0" y2="1">
      <stop offset="0" stop-color="#1A1A1A"/>
      <stop offset="1" stop-color="#000000"/>
    </linearGradient>
  </defs>
  <rect width="512" height="512" rx="112" fill="url(#bg)"/>
  <rect x="20" y="20" width="472" height="472" rx="94" fill="none" stroke="#B98A2F" stroke-width="10" opacity="0.9"/>
  <g fill="#E01F1F" transform="translate(95.802,97.280) scale(0.27376,-0.27376) translate(-93.035,-895.654)">
    <path transform="translate(0,0)" d="M208.7226139113964 -263.8955066821004Q156.41292223508367 -263.8955066821004 124.7238766705251 -243.72324529096076Q93.03483110596653 -223.55098389982112 93.03483110596653 -182.7238766705251Q93.03483110596653 -142.37935388824582 120.25870777649163 -120.89676944122908Q147.48258444701673 -99.41418499421235 191.56839945280439 -91.17289277070398Q235.65421445859204 -82.93160054719561 285.8606755761339 -82.93160054719561H419.30716615805534Q506.7910133642008 -82.93160054719561 558.6367989056088 -59.06966221193307Q610.4825844470167 -35.20772387667053 633.483215826581 10.378722508681467Q656.4838472061455 55.96516889403346 656.4838472061455 120.82836998842471Q656.4838472061455 200.2077238766705 629.0870777649163 232.55287803851414Q601.6903083236873 264.89803220035776 561.7587077764916 264.89803220035776Q537.3445227822792 264.89803220035776 520.3787225086814 253.81158581500577Q503.41292223508367 242.72513942965378 494.8955066821004 224.50063137956434Q486.37809112911714 206.2761233294749 486.37809112911714 183.62064611175418V0H348.9328633063243V501.24129222350837H177.79353888245817V0H111.20772387667053V559.5858150057876H652.4825844470167V501.24129222350837H486.37809112911714V272Q493.2400294643797 287.6206461117542 508.981321687888 303.6896769441229Q524.7226139113964 319.75870777649163 550.9639061349047 331.13806166473745Q577.2051983584131 342.51741555298327 614.4464905819215 342.51741555298327Q661.3432600231506 342.51741555298327 702.7742291907819 319.8277386088604Q744.2051983584131 297.13806166473745 770.0671366936756 250.89676944122908Q795.9290750289382 204.65547721772072 795.9290750289382 133.69030832368725Q795.9290750289382 62.2761233294749 770.5323055877091 11.379353888245817Q745.13553614648 -39.517415552983266 697.4284436493739 -71.7761233294749Q649.7213511522677 -104.03483110596653 581.9800589287594 -119.22450805008944Q514.238766705251 -134.41418499421235 428.92907502893826 -134.41418499421235H338.4800589287593Q285.6529516994633 -134.41418499421235 257.4290750289382 -150.20709249710617Q229.20519835841313 -166 218.96390613490476 -194.96516889403347Q208.7226139113964 -223.93033778806694 208.7226139113964 -263.8955066821004Z"/><path transform="translate(851,0)" d="M-30.206461117541828 503.13806166473745Q-84.30969167631274 503.13806166473745 -127.68904556455857 526.5690308323688Q-171.06839945280439 550 -195.70646111754183 592.0516152793855Q-220.34452278227928 634.1032305587709 -220.34452278227928 689.3445227822792Q-220.34452278227928 751.0683994528043 -189.36193833526255 797.2406608439439Q-158.37935388824582 843.4129222350837 -104.08644638535199 869.5335683468379Q-49.79353888245817 895.654214458592 20.06839945280438 895.654214458592Q80.58581500578765 895.654214458592 127.20646111754183 875.9645375144692Q173.82710722929602 856.2748605703462 200.06839945280439 820.0335683468378Q226.30969167631275 783.7922761233294 226.30969167631275 733.0683994528043Q226.30969167631275 694.7238766705251 206.68904556455857 665.4825844470167Q187.06839945280439 636.2412922235084 153.1374302851731 619.7412922235084Q119.20646111754183 603.2412922235084 74.96516889403347 603.2412922235084Q23.103230558770914 603.2412922235084 -13.138061664737451 623.603230558771Q-49.37935388824582 643.9651688940335 -68.31032305587709 677.827107229296Q-87.24129222350837 711.6890455645586 -87.24129222350837 752.9303377880669Q-87.24129222350837 780.1716300115753 -78.93096916763128 808.6716300115753Q-70.62064611175418 837.1716300115753 -53 865.5509838998211L-2.552246658949805 861.5509838998211Q-15.552246658949805 837.7922761233294 -21.93160054719562 813.6025991792065Q-28.310954435441438 789.4129222350837 -28.310954435441438 766.4129222350837Q-28.310954435441438 726.2748605703462 -6.983215826581079 699.2058297379774Q14.344522782279281 672.1367989056088 56.62064611175418 672.1367989056088Q89.37935388824582 672.1367989056088 108.89676944122908 692.8264758497317Q128.41418499421235 713.5161527938545 128.41418499421235 741.7922761233294Q128.41418499421235 786.9303377880669 96.20709249710617 812.4303377880669Q64 837.9303377880669 12.344522782279281 837.9303377880669Q-40.17289277070399 837.9303377880669 -78.10386193833526 818.3787225086814Q-116.03483110596653 798.827107229296 -136.086446385352 764.4651688940335Q-156.13806166473745 730.1032305587709 -156.13806166473745 685.8619383352625Q-156.13806166473745 647.1032305587709 -140.43096916763128 618.723876670525Q-124.7238766705251 590.3445227822792 -96.39613806166474 574.9651688940335Q-68.06839945280439 559.5858150057876 -30.206461117541828 559.5858150057876H0V503.13806166473745Z"/>
  </g>
</svg>